<svg xmlns="http://www.w3.org/2000/svg" viewBox="0 0 448 281.71"><defs><style>.cls-1{fill:none;}.cls-2{fill:#2e2e2c;}</style></defs><g id="Layer_2" data-name="Layer 2"><g id="Layer_1-2" data-name="Layer 1"><path class="cls-1" d="M277.06,215.89h0a4.14,4.14,0,0,1-1.16-3.68,32,32,0,0,0-16.8-6.9,4.15,4.15,0,0,1-3.43,1.84h0a4.1,4.1,0,0,1-3.41-1.81,31.82,31.82,0,0,0-16.74,7,4.15,4.15,0,0,1-4.07,5,4,4,0,0,1-.77-.08,31.85,31.85,0,0,0-6.87,16.81,4.1,4.1,0,0,1,1.84,3.42,4.15,4.15,0,0,1-1.8,3.45,32,32,0,0,0,7.06,16.73,4.13,4.13,0,0,1,4.85,4.8,32,32,0,0,0,16.8,6.9,4.16,4.16,0,0,1,3.42-1.85h0a4.15,4.15,0,0,1,3.42,1.81,31.81,31.81,0,0,0,16.73-7,4.15,4.15,0,0,1,4.84-4.89,31.82,31.82,0,0,0,6.87-16.8,4.15,4.15,0,0,1,0-6.87A32.1,32.1,0,0,0,280.76,217a4.09,4.09,0,0,1-3.7-1.12ZM266,247.38a14.22,14.22,0,0,1-10.08,4.23h-.07a14.3,14.3,0,0,1-14.27-14.21,14.27,14.27,0,0,1,14.2-14.34h0A14.28,14.28,0,0,1,266,247.38Z"/><path class="cls-1" d="M375.12,243.32h0a6,6,0,1,0-4.28-10.18,5.88,5.88,0,0,0-1.73,4.23A6,6,0,0,0,375.12,243.32Z"/><path class="cls-1" d="M350.73,217.32a4,4,0,0,1-.77-.07,31.82,31.82,0,0,0-6.87,16.8,4.15,4.15,0,0,1,0,6.87,32,32,0,0,0,7.06,16.73,4.15,4.15,0,0,1,4.85,4.81,32,32,0,0,0,16.8,6.89,4.17,4.17,0,0,1,3.43-1.84h0a4.15,4.15,0,0,1,3.42,1.81,31.85,31.85,0,0,0,16.74-7,4.14,4.14,0,0,1,4.83-4.88,31.85,31.85,0,0,0,6.87-16.8,4.12,4.12,0,0,1-1.84-3.43,4.16,4.16,0,0,1,1.8-3.44A31.9,31.9,0,0,0,400.05,217a3.94,3.94,0,0,1-.77.07,4.14,4.14,0,0,1-4.08-4.88,32.11,32.11,0,0,0-16.8-6.89,4.15,4.15,0,0,1-3.43,1.84h0a4.11,4.11,0,0,1-3.42-1.81h0a31.78,31.78,0,0,0-16.74,7,4.15,4.15,0,0,1-4.07,4.95Zm14.25,10a14.28,14.28,0,1,1,10.21,24.32h-.07A14.28,14.28,0,0,1,365,227.29Z"/><rect class="cls-1" x="306.82" y="109.6" width="32.2" height="9.38"/><rect class="cls-1" x="208.22" y="8.3" width="4.86" height="40.1"/><polygon class="cls-1" points="409.62 97.25 379.06 124.74 379.06 134.82 415.23 102.3 409.62 97.25"/><polygon class="cls-1" points="379.06 175.15 437.65 122.46 431.12 116.59 379.06 163.41 379.06 175.15"/><polygon class="cls-1" points="379.06 152.25 424.92 111.01 421.43 107.87 379.06 145.98 379.06 152.25"/><path class="cls-1" d="M178.17,21.68a6,6,0,1,0,0,12h0a6,6,0,0,0,0-12Z"/><path class="cls-1" d="M136.35,207.15h0a4.13,4.13,0,0,1-3.43-1.81,31.82,31.82,0,0,0-16.73,7,4.14,4.14,0,0,1-1.13,3.73,4.09,4.09,0,0,1-2.94,1.23,4,4,0,0,1-.77-.08,31.92,31.92,0,0,0-6.86,16.81,4.1,4.1,0,0,1,1.84,3.42,4.15,4.15,0,0,1-1.8,3.45,32,32,0,0,0,7.06,16.73,4.13,4.13,0,0,1,4.85,4.8,32,32,0,0,0,16.8,6.9,4.17,4.17,0,0,1,3.43-1.85h0a4.15,4.15,0,0,1,3.42,1.81,31.84,31.84,0,0,0,16.74-7,4.15,4.15,0,0,1,4.84-4.89,31.88,31.88,0,0,0,6.86-16.8,4.1,4.1,0,0,1-1.84-3.42,4.17,4.17,0,0,1,1.8-3.45A32,32,0,0,0,161.44,217a3.94,3.94,0,0,1-.77.08,4.13,4.13,0,0,1-2.92-1.2h0a4.17,4.17,0,0,1-1.17-3.68,32,32,0,0,0-16.8-6.9A4.15,4.15,0,0,1,136.35,207.15Zm14.43,30.11a14.27,14.27,0,0,1-14.2,14.35h-.07a14.28,14.28,0,0,1-.07-28.55h0A14.32,14.32,0,0,1,150.78,237.26Z"/><path class="cls-1" d="M130.53,237.36a6,6,0,0,0,6,5.95h0a5.92,5.92,0,0,0,4.22-1.77h0a6,6,0,1,0-10.22-4.18Z"/><path class="cls-1" d="M255.82,231.36a6,6,0,0,0-6,6,6,6,0,0,0,6,5.95h0a5.92,5.92,0,0,0,4.22-1.77h0a5.88,5.88,0,0,0,1.73-4.24A6,6,0,0,0,255.82,231.36Z"/><path class="cls-1" d="M314.89,177.78a6,6,0,1,0,0,11.95h0a6,6,0,0,0,0-11.95Z"/><path class="cls-1" d="M255.63,152.74a6,6,0,1,0-6-6,6,6,0,0,0,6,6Z"/><path class="cls-1" d="M140.86,155.68l8.06-4.9a14.44,14.44,0,0,1-.26-2.57A14.27,14.27,0,1,1,163,162.42h-.07a14.19,14.19,0,0,1-10.15-4.28l-11.92,7.25v14.88h39l61.49-33c0-.13,0-.28,0-.42a14.28,14.28,0,0,1,28.56-.14c0,.27,0,.52,0,.77L308.56,171a14,14,0,0,1,6.26-1.5,14.32,14.32,0,0,1,13.9,10.79h42v-53H140.86Zm184.22-18.59h31.11a4.15,4.15,0,1,1,0,8.29H325.08a4.15,4.15,0,1,1,0-8.29Zm0,11.76h31.11a4.15,4.15,0,1,1,0,8.29H325.08a4.15,4.15,0,1,1,0-8.29Z"/><path class="cls-1" d="M163,154.12a6,6,0,1,0-6-6h0a6,6,0,0,0,6,6Z"/><path class="cls-1" d="M199.93,8.3H157.07V48.41h42.86ZM178.22,41.92h-.06a14.28,14.28,0,0,1-.07-28.55h0a14.28,14.28,0,1,1,.13,28.55Z"/><path class="cls-1" d="M184.93,94.58h.13c.59,0,1.16,0,1.73.06V56.7h-3.44V94.63C183.87,94.6,184.4,94.58,184.93,94.58Z"/><path class="cls-1" d="M185.07,102.88H185a20.42,20.42,0,0,0-19.8,16.1H205A20.43,20.43,0,0,0,185.07,102.88Z"/><path class="cls-1" d="M255.67,161h-.07a14.27,14.27,0,0,1-11.49-5.85L197.4,180.28H301.07a14,14,0,0,1,1.29-3.35L266.94,155.4A14.27,14.27,0,0,1,255.67,161Z"/><path class="cls-2" d="M136.44,223.06a14.28,14.28,0,0,0,.07,28.55h.07a14.28,14.28,0,0,0-.14-28.55Zm.07,8.3a6,6,0,0,1,4.24,10.18h0a5.92,5.92,0,0,1-4.22,1.77h0a6,6,0,0,1-4.25-10.18A5.91,5.91,0,0,1,136.51,231.36Z"/><path class="cls-2" d="M255.75,223.06h0a14.28,14.28,0,0,0,.07,28.55h.07a14.28,14.28,0,1,0-.14-28.55Zm4.31,18.48a5.92,5.92,0,0,1-4.22,1.77h0a6,6,0,0,1-4.24-10.18,5.89,5.89,0,0,1,4.25-1.77,6,6,0,0,1,6,5.94,5.88,5.88,0,0,1-1.73,4.24Z"/><path class="cls-2" d="M375.12,251.61h.07a14.31,14.31,0,1,0-.07,0Zm-4.24-18.47a5.89,5.89,0,0,1,4.25-1.77,6,6,0,0,1,6,5.94,6,6,0,0,1-5.94,6h0a6,6,0,0,1-6-5.95A5.88,5.88,0,0,1,370.88,233.14Z"/><path class="cls-2" d="M377.65,187.52l0,0,68.94-62a4.17,4.17,0,0,0,0-6.18L412.39,88.58a4.16,4.16,0,0,0-5.54,0L373.06,119H347.32V105.45a4.15,4.15,0,0,0-4.14-4.15h-40.5a4.15,4.15,0,0,0-4.15,4.15V119H213.41A28.74,28.74,0,0,0,195.09,96.4V56.7h22.14a4.15,4.15,0,0,0,4.15-4.15V4.15A4.15,4.15,0,0,0,217.23,0H152.92a4.15,4.15,0,0,0-4.15,4.15v48.4a4.15,4.15,0,0,0,4.15,4.15h22.14V96.4A28.82,28.82,0,0,0,156.73,119h-20a4.15,4.15,0,0,0-4.15,4.15v37.59L95.85,183,47.49,134.65a19,19,0,0,0-3-22.94L28.11,95.33a4.15,4.15,0,1,0-5.87,5.87l16.38,16.37a10.73,10.73,0,0,1,0,15.16,10.72,10.72,0,0,1-15.16,0L7.09,116.36a4.15,4.15,0,1,0-5.87,5.86L17.6,138.6a19,19,0,0,0,24.27,2.17l50.41,50.41a4.15,4.15,0,0,0,2.94,1.23,4.1,4.1,0,0,0,2.15-.61l35.2-21.37v14a4.15,4.15,0,0,0,4.14,4.15h27.68l-17.8,9.55a40.13,40.13,0,0,0-6.15-1.08,4.15,4.15,0,0,0-4.15-4.08h0a4.14,4.14,0,0,0-4.13,4.11,40.06,40.06,0,0,0-21.37,9,4.15,4.15,0,0,0-5.84,5.89,40.12,40.12,0,0,0-8.76,21.46,4.14,4.14,0,0,0,0,8.28,40.32,40.32,0,0,0,9,21.34,4.15,4.15,0,0,0,3,7.05,4.09,4.09,0,0,0,2.93-1.22,40.22,40.22,0,0,0,21.43,8.79,4.14,4.14,0,0,0,4.13,4.08h0a4.14,4.14,0,0,0,4.12-4.11,40.06,40.06,0,0,0,21.37-9,4.14,4.14,0,0,0,2.87,1.16,4.08,4.08,0,0,0,2.94-1.24,4.13,4.13,0,0,0,0-5.81,40.06,40.06,0,0,0,8.77-21.46,4.14,4.14,0,0,0,0-8.28,40.39,40.39,0,0,0-9-21.34,4.14,4.14,0,0,0-5.89-5.83,40.26,40.26,0,0,0-5.32-3.63l25.38-13.63H291.29L272,200.27a40,40,0,0,0-12.3-3.23,4.14,4.14,0,0,0-4.13-4.08h0a4.15,4.15,0,0,0-4.12,4.11,40,40,0,0,0-21.36,9,4.14,4.14,0,0,0-5.83,5.88,40.09,40.09,0,0,0-8.77,21.46,4.15,4.15,0,0,0,0,8.29,40.5,40.5,0,0,0,9,21.34,4.15,4.15,0,0,0,3,7,4.09,4.09,0,0,0,2.93-1.22,40.22,40.22,0,0,0,21.43,8.79,4.14,4.14,0,0,0,4.14,4.08h0a4.14,4.14,0,0,0,4.12-4.11,39.93,39.93,0,0,0,21.36-9,4.14,4.14,0,0,0,5.83-5.88,40.06,40.06,0,0,0,8.77-21.46,4.14,4.14,0,0,0,0-8.28,40.21,40.21,0,0,0-9-21.34,4.15,4.15,0,0,0-5.89-5.84c-.33-.27-.67-.52-1-.79l22.63-13.73A14.27,14.27,0,0,0,314.87,198h.06a14.29,14.29,0,0,0,12.39-7.32L350.77,205c-.47.35-.93.72-1.38,1.09a4.14,4.14,0,0,0-5.83,5.89,40,40,0,0,0-8.77,21.45,4.15,4.15,0,0,0,0,8.29,40.27,40.27,0,0,0,9,21.34,4.15,4.15,0,0,0,3,7.05,4.09,4.09,0,0,0,2.92-1.22,40.22,40.22,0,0,0,21.42,8.79,4.16,4.16,0,0,0,4.14,4.08h0a4.16,4.16,0,0,0,4.13-4.11,40,40,0,0,0,21.37-9,4.14,4.14,0,0,0,5.82-5.89,40.06,40.06,0,0,0,8.77-21.45,4.14,4.14,0,0,0,0-8.28,40.27,40.27,0,0,0-9-21.34,4.15,4.15,0,0,0-5.9-5.84A40.22,40.22,0,0,0,379,197a4.15,4.15,0,0,0-4.14-4.08h0a4.14,4.14,0,0,0-4.11,4.11,40,40,0,0,0-11.84,3.13L339.8,188.57h35.12A4.09,4.09,0,0,0,377.65,187.52Zm60-65.06-58.59,52.69V163.41l52.06-46.82ZM424.92,111l-45.86,41.24V146l42.37-38.11Zm-45.86,13.73,30.56-27.49,5.61,5-36.17,32.52ZM156.58,212.21a4.17,4.17,0,0,0,1.17,3.68h0a4.13,4.13,0,0,0,2.92,1.2,3.94,3.94,0,0,0,.77-.08,32,32,0,0,1,7.06,16.73,4.17,4.17,0,0,0-1.8,3.45,4.1,4.1,0,0,0,1.84,3.42,31.88,31.88,0,0,1-6.86,16.8,4.15,4.15,0,0,0-4.84,4.89,31.84,31.84,0,0,1-16.74,7,4.15,4.15,0,0,0-3.42-1.81h0a4.17,4.17,0,0,0-3.43,1.85,32,32,0,0,1-16.8-6.9,4.13,4.13,0,0,0-4.85-4.8,32,32,0,0,1-7.06-16.73,4.15,4.15,0,0,0,1.8-3.45,4.1,4.1,0,0,0-1.84-3.42,31.92,31.92,0,0,1,6.86-16.81,4,4,0,0,0,.77.08,4.09,4.09,0,0,0,2.94-1.23,4.14,4.14,0,0,0,1.13-3.73,31.82,31.82,0,0,1,16.73-7,4.13,4.13,0,0,0,3.43,1.81h0a4.15,4.15,0,0,0,3.43-1.84A32,32,0,0,1,156.58,212.21ZM280.76,217a32.1,32.1,0,0,1,7.06,16.73,4.15,4.15,0,0,0,0,6.87,31.82,31.82,0,0,1-6.87,16.8,4.15,4.15,0,0,0-4.84,4.89,31.81,31.81,0,0,1-16.73,7,4.15,4.15,0,0,0-3.42-1.81h0a4.16,4.16,0,0,0-3.42,1.85,32,32,0,0,1-16.8-6.9,4.13,4.13,0,0,0-4.85-4.8,32,32,0,0,1-7.06-16.73,4.15,4.15,0,0,0,1.8-3.45,4.1,4.1,0,0,0-1.84-3.42,31.85,31.85,0,0,1,6.87-16.81,4,4,0,0,0,.77.08,4.15,4.15,0,0,0,4.07-5,31.82,31.82,0,0,1,16.74-7,4.1,4.1,0,0,0,3.41,1.81h0a4.15,4.15,0,0,0,3.43-1.84,32,32,0,0,1,16.8,6.9,4.14,4.14,0,0,0,1.16,3.68h0a4.09,4.09,0,0,0,3.7,1.12Zm74-4.64a31.78,31.78,0,0,1,16.74-7h0a4.11,4.11,0,0,0,3.42,1.81h0a4.15,4.15,0,0,0,3.43-1.84,32.11,32.11,0,0,1,16.8,6.89,4.14,4.14,0,0,0,4.08,4.88,3.94,3.94,0,0,0,.77-.07,31.9,31.9,0,0,1,7.06,16.73,4.16,4.16,0,0,0-1.8,3.44,4.12,4.12,0,0,0,1.84,3.43,31.85,31.85,0,0,1-6.87,16.8,4.14,4.14,0,0,0-4.83,4.88,31.85,31.85,0,0,1-16.74,7,4.15,4.15,0,0,0-3.42-1.81h0a4.17,4.17,0,0,0-3.43,1.84,32,32,0,0,1-16.8-6.89,4.15,4.15,0,0,0-4.85-4.81,32,32,0,0,1-7.06-16.73,4.15,4.15,0,0,0,0-6.87,31.82,31.82,0,0,1,6.87-16.8,4,4,0,0,0,.77.07,4.15,4.15,0,0,0,4.07-4.95Zm-48-102.77H339V119h-32.2ZM208.22,8.3h4.86V48.41h-4.86ZM157.07,48.41V8.3h42.86V48.41Zm29.72,8.29V94.64c-.57,0-1.14-.06-1.73-.06h-.13c-.53,0-1.06,0-1.58,0V56.7ZM185,102.88h.1A20.43,20.43,0,0,1,205,119H165.17A20.42,20.42,0,0,1,185,102.88Zm116.1,77.4H197.4l46.71-25.09A14.27,14.27,0,0,0,255.6,161h.07a14.27,14.27,0,0,0,11.27-5.64l35.42,21.53A14,14,0,0,0,301.07,180.28Zm-51.45-33.49a6,6,0,1,1,6,6h0A6,6,0,0,1,249.62,146.79Zm65.3,42.94h0a6,6,0,1,1,6-6A6,6,0,0,1,314.89,189.73Zm55.84-9.46h-42a14.32,14.32,0,0,0-13.9-10.79,14,14,0,0,0-6.26,1.5l-38.72-23.52c0-.25,0-.5,0-.77a14.28,14.28,0,0,0-28.56.14c0,.14,0,.29,0,.42l-61.49,33h-39V165.39l11.92-7.25a14.19,14.19,0,0,0,10.15,4.28H163a14.28,14.28,0,1,0-14.35-14.21,14.44,14.44,0,0,0,.26,2.57l-8.06,4.9V127.27h229.9ZM157,148.17h0a6,6,0,0,1,1.73-4.23,5.91,5.91,0,0,1,4.25-1.77,6,6,0,0,1,6,6,6,6,0,0,1-5.94,6h0A6,6,0,0,1,157,148.17Z"/><path class="cls-2" d="M178.09,13.37h0a14.28,14.28,0,0,0,.07,28.55h.06a14.28,14.28,0,1,0-.13-28.55Zm.1,20.26h0a6,6,0,1,1,6-6A6,6,0,0,1,178.16,33.63Z"/><path class="cls-2" d="M325.08,145.38h31.11a4.15,4.15,0,1,0,0-8.29H325.08a4.15,4.15,0,1,0,0,8.29Z"/><path class="cls-2" d="M325.08,157.14h31.11a4.15,4.15,0,1,0,0-8.29H325.08a4.15,4.15,0,1,0,0,8.29Z"/></g></g></svg>